<svg height="464pt" viewBox="0 -36 464.0664 464" width="464pt" xmlns="http://www.w3.org/2000/svg"><path d="m296 191.566406c.800781-17.207031-5.683594-33.957031-17.863281-46.136718-12.179688-12.179688-28.929688-18.664063-46.136719-17.863282-40 0-64 8-64 64 1.160156-17.167968 14.832031-30.839844 32-32 17.167969 1.160156 30.839844 14.832032 32 32 .496094 8.628906-2.714844 17.058594-8.828125 23.171875s-14.542969 9.324219-23.171875 8.828125h96zm0 0" fill="#92cdde"/><path d="m360 127.558594v96h-160c39.765625 0 72-32.234375 72-72s-32.234375-72-72-72c-39.730469.082031-71.917969 32.269531-72 72 0 0-64-96 32-136 116.160156-48.402344 200 24 200 112zm0 0" fill="#cdeef6"/><path d="m281.921875 55.796875-3.84375 15.519531c-50.878906-12.71875-87.117187-9.359375-107.757813 10-2.722656 2.539063-5.140624 5.382813-7.199218 8.480469-11.765625 6.941406-21.269532 17.136719-27.359375 29.359375 1.839843-18.714844 10.160156-36.199219 23.519531-49.4375 24.796875-23.359375 66.078125-28.082031 122.640625-13.921875zm0 0" fill="#92cdde"/><path d="m291.566406 78.222656 8.875-13.3125 24.003906 16.003906-8.875 13.3125zm0 0" fill="#92cdde"/><path d="m400 127.566406c-40 0-64 8-64 64 1.160156-17.167968 14.832031-30.839844 32-32 17.167969 1.160156 30.839844 14.832032 32 32 .496094 8.628906-2.714844 17.058594-8.828125 23.171875s-14.542969 9.324219-23.171875 8.828125h-368v168h464v-200c.800781-17.207031-5.683594-33.957031-17.863281-46.136718-12.179688-12.179688-28.929688-18.664063-46.136719-17.863282zm0 0" fill="#50b3c9"/><path d="m464 255.566406c-29.015625 0-26.984375 40-56 40s-26.984375-40-56-40-35 40-64 40-26.992188-40-56-40-27 40-56 40-27.007812-40-56-40-35.007812 40-64 40-27.007812-40-56-40v136h464zm0 0" fill="#92cdde"/><g fill="#cdeef6"><path d="m464 319.566406c-29.015625 0-26.984375 40-56 40s-26.984375-40-56-40-35 40-64 40-26.992188-40-56-40-27 40-56 40-27.007812-40-56-40-35.007812 40-64 40-27.007812-40-56-40v72h464zm0 0"/><path d="m424 31.566406c0 8.835938-7.164062 16-16 16s-16-7.164062-16-16c0-8.835937 7.164062-16 16-16s16 7.164063 16 16zm0 0"/><path d="m80 175.566406c0 8.835938-7.164062 16-16 16s-16-7.164062-16-16c0-8.835937 7.164062-16 16-16s16 7.164063 16 16zm0 0"/></g></svg>